<?xml version="1.0" standalone="no"?><!DOCTYPE svg PUBLIC "-//W3C//DTD SVG 1.1//EN" "http://www.w3.org/Graphics/SVG/1.1/DTD/svg11.dtd"><svg t="1695643142063" class="icon" viewBox="0 0 1024 1024" version="1.1" xmlns="http://www.w3.org/2000/svg" p-id="2601" xmlns:xlink="http://www.w3.org/1999/xlink" width="128" height="128"><path d="M625.28 301.632l48.192 5.76-0.832 6.848-48.128-5.76z" fill="#020202" p-id="2602"></path><path d="M648.32 283.456l6.912 0.768-5.696 48.192-6.848-0.832zM140.288 693.12l34.816 33.792-4.8 4.992-34.88-33.792z" fill="#020202" p-id="2603"></path><path d="M169.408 692.48l5.056 4.8-33.408 35.2-5.056-4.8zM980.992 571.456l26.176 40.96-5.76 3.584-26.112-40.96z" fill="#020202" p-id="2604"></path><path d="M1009.664 577.536l3.776 5.76-40.64 26.496-3.776-5.76z" fill="#020202" p-id="2605"></path><path d="M579.584 712.576m-162.688 0a162.688 162.688 0 1 0 325.376 0 162.688 162.688 0 1 0-325.376 0Z" fill="#ED8B8F" p-id="2606"></path><path d="M567.552 801.728c-106.24 0-189.504-36.224-189.504-82.56 0-12.672 6.272-24.96 18.688-36.096a3.392 3.392 0 0 1 4.928 0.192 3.52 3.52 0 0 1-0.256 4.992c-10.88 9.792-16.384 20.224-16.384 30.912 0 41.728 81.92 75.776 182.592 75.776 100.736 0 182.656-33.984 182.656-75.776 0-13.888-9.6-27.648-27.776-39.68a3.328 3.328 0 0 1-0.896-4.8c0.96-1.6 3.136-1.984 4.736-0.96 20.16 13.376 30.784 29.056 30.784 45.44 0.064 46.336-83.2 82.56-189.568 82.56z" fill="#1E1E1E" p-id="2607"></path><path d="M477.312 859.392c-15.168 0-27.648-4.288-36.288-13.312-8.832-9.216-12.736-22.336-11.648-39.04a3.456 3.456 0 0 1 3.712-3.2c1.92 0.064 3.392 1.728 3.2 3.712-1.024 14.656 2.24 25.984 9.728 33.728 28.928 30.08 111.424-2.368 183.936-72.256 35.52-34.176 63.232-72.064 77.952-106.88 14.4-33.792 14.656-60.096 1.216-74.368-9.728-9.92-26.048-13.248-47.488-9.344a3.392 3.392 0 0 1-4.096-2.688 3.456 3.456 0 0 1 2.88-4.032c23.68-4.416 42.368-0.448 53.696 11.392 15.68 16.32 15.808 45.312 0.32 81.856-15.168 35.52-43.392 74.24-79.552 109.184-56 53.76-116.48 85.248-157.568 85.248z" fill="#1E1E1E" p-id="2608"></path><path d="M561.792 870.848a166.4 166.4 0 0 1-166.272-166.144 166.4 166.4 0 0 1 166.272-166.144 166.272 166.272 0 0 1 166.08 166.144 166.272 166.272 0 0 1-166.08 166.144z m0-325.376c-87.872 0-159.296 71.424-159.296 159.232s71.424 159.168 159.296 159.168c87.808 0 159.168-71.36 159.168-159.168S649.6 545.472 561.792 545.472z" fill="#1E1E1E" p-id="2609"></path><path d="M679.808 714.496m-30.848 0a30.848 30.848 0 1 0 61.696 0 30.848 30.848 0 1 0-61.696 0Z" fill="#ED8B8F" p-id="2610"></path><path d="M679.744 748.736a34.24 34.24 0 1 1 0-68.48 34.24 34.24 0 0 1 0 68.48z m0-61.632a27.392 27.392 0 1 0 0.256 54.784 27.392 27.392 0 0 0-0.256-54.784zM481.856 773.696a25.472 25.472 0 1 1 0-51.008 25.472 25.472 0 0 1 0 51.008z m0-44.096a18.56 18.56 0 1 0 18.496 18.56 18.56 18.56 0 0 0-18.496-18.56zM585.088 635.84a17.28 17.28 0 0 1-17.152-17.216 17.28 17.28 0 0 1 34.432 0 17.28 17.28 0 0 1-17.28 17.216z m0-27.392a10.176 10.176 0 1 0 0 20.352 10.176 10.176 0 1 0 0-20.352zM372.288 814.528a15.488 15.488 0 1 1 0-30.912 15.488 15.488 0 0 1 0 30.912z m0-24a8.576 8.576 0 1 0 0 17.152 8.576 8.576 0 0 0 0-17.152zM774.208 597.12a21.44 21.44 0 1 1 0-42.88 21.44 21.44 0 0 1 0 42.88z m0-36.032a14.592 14.592 0 1 0 0.064 29.12 14.592 14.592 0 0 0-0.064-29.12z" fill="#020202" p-id="2611"></path><path d="M744.896 630.72m-8.64 0a8.64 8.64 0 1 0 17.28 0 8.64 8.64 0 1 0-17.28 0Z" fill="#070707" p-id="2612"></path><path d="M542.272 706.304l-1.664-3.712a38.976 38.976 0 0 1-3.264-13.696 33.728 33.728 0 0 1 1.536-10.24c0.832-2.624 2.688-6.848 5.44-12.48a48.512 48.512 0 0 0 4.544-12.8 15.104 15.104 0 0 0-1.152-8.192 19.008 19.008 0 0 0-11.136-10.624 21.12 21.12 0 0 0-16.256 0.448 20.16 20.16 0 0 0-11.264 10.56 28.416 28.416 0 0 0-0.512 18.688l-13.568 3.84a36.096 36.096 0 0 1 1.216-26.24 36.48 36.48 0 0 1 19.648-17.216 37.12 37.12 0 0 1 27.392-1.728 28.288 28.288 0 0 1 19.264 29.696c-0.64 4.736-2.752 11.008-6.656 18.88a81.792 81.792 0 0 0-4.672 11.52 19.776 19.776 0 0 0-0.256 7.04 44.608 44.608 0 0 0 3.52 11.264l-12.16 4.992z m9.728 25.6l-6.016-14.336 14.4-5.952 5.952 14.336-14.336 5.952zM737.6 883.008c0.448-1.216 0.64-2.048 0.832-2.688a26.176 26.176 0 0 1 4.416-8.768 18.688 18.688 0 0 1 5.376-4.736 58.88 58.88 0 0 1 8.64-4.288 38.016 38.016 0 0 0 8.128-4.672 11.648 11.648 0 0 0 3.136-4.992 13.056 13.056 0 0 0-1.216-10.624 14.336 14.336 0 0 0-8.896-7.168 13.76 13.76 0 0 0-10.944 0.64c-3.328 1.536-6.144 4.864-8.576 9.728l-9.088-4.032a25.28 25.28 0 0 1 12.48-13.504 25.216 25.216 0 0 1 18.176-0.384 26.496 26.496 0 0 1 15.488 11.392 20.096 20.096 0 0 1-3.136 24.576 41.984 41.984 0 0 1-12.032 7.04 51.84 51.84 0 0 0-7.552 4.032 14.528 14.528 0 0 0-3.456 3.648 44.992 44.992 0 0 0-3.264 7.68l-8.512-2.88z m-6.208 18.048l3.2-10.24 10.432 3.136-3.328 10.368-10.304-3.264zM816.256 811.712a18.56 18.56 0 0 1-2.816-7.488 12.992 12.992 0 0 1 0.384-4.352 47.232 47.232 0 0 1 1.792-5.76 18.56 18.56 0 0 0 1.6-5.696 6.272 6.272 0 0 0-0.896-3.584 7.808 7.808 0 0 0-5.184-4.096c-2.496-0.768-4.864-0.512-7.104 0.704s-3.776 2.88-4.544 5.056a12.032 12.032 0 0 0 0.576 8.064l-5.824 2.24a16.64 16.64 0 0 1-0.512-11.456 15.68 15.68 0 0 1 7.936-8.192 15.744 15.744 0 0 1 11.84-1.856 12.48 12.48 0 0 1 9.536 12.224 30.592 30.592 0 0 1-2.112 8.576 21.952 21.952 0 0 0-1.536 5.056 8.32 8.32 0 0 0 0.128 3.072 20.032 20.032 0 0 0 1.92 4.864l-5.184 2.624z m5.248 10.688l-3.2-6.016 6.08-3.136 3.072 6.016-5.952 3.136zM406.016 536.128c-63.104 0-87.488-51.456-91.52-61.184l-45.312-16.768 9.088-3.2c8.512-2.944 21.76-7.68 26.624-9.6 2.944-19.968 21.76-27.264 27.52-29.056l16.576-32.96 2.496 8.512c3.52 12.416 9.152 32.256 10.816 39.488 44.928 17.088 64.896 53.12 56.064 101.632l-0.512 2.624-2.688 0.192a149.12 149.12 0 0 1-9.152 0.32zM289.6 458.368l30.208 11.2 0.576 1.536c0.832 2.368 21.312 58.112 85.568 58.112l5.952-0.192C421.056 472.64 387.84 448 358.08 437.184l-2.176-0.832-0.064-2.368c-0.32-1.92-4.736-17.984-8.64-31.616l-9.984 19.904-1.6 0.384c-0.96 0.128-22.272 5.312-24.128 25.472l-0.192 1.92-1.728 0.896a379.136 379.136 0 0 1-19.968 7.424z" fill="" p-id="2613"></path><path d="M278.272 392.896s17.728 33.92 20.224 33.984c4.48 0 12.8-0.64 12.8-0.64l1.92-12.096-34.944-21.248z" fill="" p-id="2614"></path><path d="M87.168 157.312l23.04 23.424-4.992 4.864-22.976-23.424zM19.392 128.768l23.04 23.424-4.992 4.864-23.04-23.424zM15.488 162.432l22.976 23.424-4.992 4.864-22.976-23.36zM118.4 188.928l182.208 180.864-4.928 4.992-182.208-180.928zM51.584 162.496l221.696 218.24-4.864 4.928L46.72 167.424zM51.584 199.36L263.68 411.584l-4.928 4.864L46.72 204.288z" fill="#020202" p-id="2615"></path><path d="M381.76 515.52a18.88 18.88 0 1 1 0-37.76 18.88 18.88 0 0 1 0 37.76z m0-30.848a11.968 11.968 0 1 0 0 23.872 11.968 11.968 0 0 0 0-23.872zM313.984 473.792c-6.4-13.184-9.216-24.704-9.344-25.152l6.72-1.6c0.064 0.064 2.688 11.264 8.832 23.744l-6.208 3.008z" fill="" p-id="2616"></path><path d="M358.016 437.12c-18.304-7.232-25.28-14.528-25.6-14.784l5.056-4.8c0.064 0.064 6.4 6.528 23.104 13.12l-2.56 6.464z" fill="" p-id="2617"></path></svg>